<svg xmlns="http://www.w3.org/2000/svg" viewBox="8 9 45 55" fill="#DC2626">
<path d="M50.17 52.62L50.17 52.62L51.06 52.95Q50.50 55.53 49.61 57.29Q48.71 59.06 47.42 60.12L47.42 60.12Q46.36 61.07 44.51 61.80Q42.66 62.53 39.98 62.53L39.98 62.53Q37.01 62.53 34.18 61.55Q31.35 60.57 28.36 59.20Q25.36 57.82 21.83 56.59L21.83 56.59Q21.44 56.48 21.10 56.37Q20.77 56.26 20.49 56.20L20.49 56.20Q19.42 56.65 18.19 56.90Q16.96 57.15 15.84 57.15L15.84 57.15Q14.72 57.15 13.99 56.84Q13.26 56.54 13.26 55.92L13.26 55.92Q13.26 54.63 16.29 54.63L16.29 54.63Q18.25 54.63 20.49 55.19L20.49 55.19Q22.56 54.63 24.02 53.93Q25.47 53.23 27.04 52.62Q28.61 52 30.79 51.83L30.79 51.83L30.85 52.73Q29.17 52.90 27.91 53.37Q26.65 53.85 25.42 54.41Q24.18 54.97 22.45 55.47L22.45 55.47Q25.64 55.92 29 56.45Q32.36 56.98 35.38 57.29Q38.41 57.60 40.65 57.49L40.65 57.49Q44.46 57.38 46.70 56.23Q48.94 55.08 50.17 52.62ZM29.28 11.57L29.28 11.57Q34.77 11.57 38.94 13.98Q43.11 16.38 45.41 20.89Q47.70 25.40 47.70 31.84L47.70 31.84Q47.70 38.11 45.35 42.82Q43 47.52 38.80 50.15Q34.60 52.78 29.22 52.78L29.22 52.78Q23.68 52.78 19.54 50.38Q15.39 47.97 13.10 43.43Q10.80 38.90 10.80 32.51L10.80 32.51Q10.80 26.24 13.18 21.54Q15.56 16.83 19.70 14.20Q23.85 11.57 29.28 11.57ZM29.06 12.58L29.06 12.58Q25.58 12.58 23.01 15.10Q20.43 17.62 19.03 22.04Q17.63 26.46 17.63 32.29L17.63 32.29Q17.63 38.22 19.20 42.62Q20.77 47.02 23.46 49.40Q26.14 51.78 29.45 51.78L29.45 51.78Q32.92 51.78 35.47 49.26Q38.02 46.74 39.44 42.28Q40.87 37.83 40.87 32.06L40.87 32.06Q40.87 26.07 39.28 21.70Q37.68 17.34 35.02 14.96Q32.36 12.58 29.06 12.58Z"/>
</svg>